<svg xmlns="http://www.w3.org/2000/svg" viewBox="0 0 64 64" role="img" aria-hidden="true">
  <circle cx="32" cy="32" r="32" fill="#24292f"/>
  <path fill="#ffffff" d="M32 14c-9.94 0-18 8.06-18 18 0 7.95 5.16 14.7 12.31 17.08.9.17 1.23-.39 1.23-.87 0-.43-.02-1.87-.03-3.39-5 .91-6.06-2.12-6.06-2.12-.82-2.08-2-2.63-2-2.63-1.63-1.11.12-1.09.12-1.09 1.81.13 2.76 1.85 2.76 1.85 1.6 2.75 4.21 1.95 5.24 1.49.16-1.16.63-1.95 1.14-2.4-3.99-.45-8.18-2-8.18-8.92 0-1.97.7-3.58 1.85-4.85-.19-.45-.8-2.28.17-4.75 0 0 1.51-.48 4.95 1.85 1.44-.4 2.98-.6 4.51-.61 1.53.01 3.07.21 4.51.61 3.44-2.33 4.95-1.85 4.95-1.85.97 2.47.36 4.3.18 4.75 1.15 1.27 1.85 2.88 1.85 4.85 0 6.94-4.2 8.46-8.2 8.91.64.56 1.21 1.65 1.21 3.33 0 2.41-.02 4.36-.02 4.96 0 .48.32 1.05 1.24.87C44.84 46.69 50 39.95 50 32c0-9.94-8.06-18-18-18Z"/>
</svg>
